# xmcd
#
# Track frame offsets: 
#        150
#        10435
#        20013
#        37204
#        51181
#        64595
#        70027
#        77299
#        88432
#        98425
#        109128
#        120633
#        133784
#        145758
#
# Disc length: 2101 seconds
#
# Revision: 0
# Processed by: cddbd v1.5.2PL0 Copyright (c) Steve Scherf et al.
# Submitted via: ExactAudioCopy v1.3
#
DISCID=bd08330e
DTITLE=Various Artist - Nad About Bluegrass
DYEAR=2009
DGENRE=Country
TTITLE0=The Stanley Brothers - Angel Band 
TTITLE1=Flatt and Scruggs - Dont Let Your Deal Go Down
TTITLE2=The Louvin Brothers - Knoxville Girl
TTITLE3=Bill Monroe - Wayfaring Stranger
TTITLE4=The Osborne Brothers - Ruby Are You Mad
TTITLE5=Roni Stoneman - Lonesome Road Blues
TTITLE6=The Dillards - Shady Grove
TTITLE7=The Country Gentlemen - TrackHigh Lonesome08
TTITLE8=Reno and Smiley - No Longer A Sweetheart Of Mine
TTITLE9=Jim Eanes - Cotton Pickin Stomp
TTITLE10=Jimmy Martin - Ocean Of Diamonds
TTITLE11=Mac Wiseman - Tis Sweet To Be Remembered
TTITLE12=Hylo Brown - John Henry
TTITLE13=Bill Monroe - Angels Rock Me To Sleep
EXTD=
EXTT0=
EXTT1=
EXTT2=
EXTT3=
EXTT4=
EXTT5=
EXTT6=
EXTT7=
EXTT8=
EXTT9=
EXTT10=
EXTT11=
EXTT12=
EXTT13=
PLAYORDER=
